<svg xmlns="http://www.w3.org/2000/svg" xmlns:svg="http://www.w3.org/2000/svg" id="svg2" width="500" height="500" version="1.0" viewBox="0 0 75 75" xml:space="preserve"><path id="path4" style="fill-rule:evenodd;stroke-width:3.03013;stroke-linecap:square;paint-order:markers stroke fill" d="M 72.331004,37.5 A 34.831004,34.831004 0 0 1 37.5,72.331004 34.831004,34.831004 0 0 1 2.6689955,37.5 34.831004,34.831004 0 0 1 37.5,2.6689955 34.831004,34.831004 0 0 1 72.331004,37.5 Z"/><path id="path3" style="color:#000;fill:#fff;stroke-width:.701617;stroke-linejoin:round;-inkscape-stroke:none" d="m 39.45186,19.818307 a 1.754219,1.754219 0 0 0 -1.231257,0.425081 L 26.679475,30.224991 H 15.94144 a 1.754219,1.754219 0 0 0 -1.753975,1.753977 v 13.396438 a 1.754219,1.754219 0 0 0 1.753975,1.754181 h 10.565374 l 11.713789,10.132274 a 1.754219,1.754219 0 0 0 2.900955,-1.326428 V 21.569815 A 1.754219,1.754219 0 0 0 40.096471,19.974731 1.754219,1.754219 0 0 0 39.45186,19.818313 Z"/><path style="color:#000;fill:#18a0ff;fill-opacity:1;stroke-width:.701617;stroke-linecap:round;-inkscape-stroke:none" id="path2" d="m 55.141575,19.988434 a 1.7540436,1.7540436 0 0 0 -1.288126,0.375476 1.7540436,1.7540436 0 0 0 -0.269959,2.466624 c 7.490955,9.324588 7.490955,22.577079 0,31.901668 a 1.7540436,1.7540436 0 0 0 0.269959,2.465253 1.7540436,1.7540436 0 0 0 2.465253,-0.268589 c 8.509384,-10.592307 8.509384,-25.70406 0,-36.296367 a 1.7540436,1.7540436 0 0 0 -1.177127,-0.644065 z m -4.487887,4.568737 a 1.7540436,1.7540436 0 0 0 -1.303198,0.323401 1.7540436,1.7540436 0 0 0 -0.371364,2.451551 c 5.022007,6.813201 5.022007,16.083918 0,22.897119 a 1.7540436,1.7540436 0 0 0 0.371364,2.45292 1.7540436,1.7540436 0 0 0 2.452919,-0.371364 c 5.925635,-8.039122 5.925635,-19.019739 0,-27.058863 a 1.7540436,1.7540436 0 0 0 -1.149721,-0.694764 z m -6.206298,5.249797 a 1.7540436,1.7540436 0 0 0 -0.504288,2.429625 c 2.610602,3.977422 2.610602,9.112128 0,13.089549 a 1.7540436,1.7540436 0 0 0 0.504288,2.428255 1.7540436,1.7540436 0 0 0 2.428254,-0.504287 c 3.37251,-5.13824 3.37251,-11.800615 0,-16.938855 A 1.7540436,1.7540436 0 0 0 44.44739,29.806968 Z"/><style id="style1"/></svg>