<?xml version="1.0" encoding="UTF-8" standalone="no"?>
<svg
   version="1.0"
   width="500"
   height="500"
   viewBox="0 0 75 75"
   id="svg2"
   sodipodi:docname="logo.svg"
   xml:space="preserve"
   inkscape:version="1.3.2 (091e20e, 2023-11-25)"
   inkscape:export-filename="resources/icon.png"
   inkscape:export-xdpi="196.608"
   inkscape:export-ydpi="196.608"
   xmlns:inkscape="http://www.inkscape.org/namespaces/inkscape"
   xmlns:sodipodi="http://sodipodi.sourceforge.net/DTD/sodipodi-0.dtd"
   xmlns="http://www.w3.org/2000/svg"
   xmlns:svg="http://www.w3.org/2000/svg"><defs
     id="defs2" /><sodipodi:namedview
     id="namedview2"
     pagecolor="#505050"
     bordercolor="#eeeeee"
     borderopacity="1"
     inkscape:showpageshadow="0"
     inkscape:pageopacity="0"
     inkscape:pagecheckerboard="0"
     inkscape:deskcolor="#505050"
     inkscape:zoom="0.6675088"
     inkscape:cx="287.63666"
     inkscape:cy="264.41599"
     inkscape:window-width="1392"
     inkscape:window-height="1022"
     inkscape:window-x="743"
     inkscape:window-y="30"
     inkscape:window-maximized="0"
     inkscape:current-layer="svg2" /><path
     id="path4"
     style="fill-rule:evenodd;stroke-width:1.83763;stroke-linecap:square;paint-order:markers stroke fill"
     d="M 58.62332,37.5 A 21.12332,21.12332 0 0 1 37.5,58.62332 21.12332,21.12332 0 0 1 16.37668,37.5 21.12332,21.12332 0 0 1 37.5,16.37668 21.12332,21.12332 0 0 1 58.62332,37.5 Z" /><path
     id="path3"
     style="color:#000000;fill:#ffffff;stroke-width:0.425497;stroke-linejoin:round;-inkscape-stroke:none"
     d="m 38.683709,26.776908 a 1.063849,1.063849 0 0 0 -0.746698,0.257791 l -6.999136,6.05336 h -6.512099 a 1.063849,1.063849 0 0 0 -1.063701,1.063702 v 8.124292 a 1.063849,1.063849 0 0 0 1.063701,1.063826 h 6.407388 l 7.103847,6.144734 A 1.063849,1.063849 0 0 0 39.6963,48.680199 V 27.839113 a 1.063849,1.063849 0 0 0 -0.621666,-0.967341 1.063849,1.063849 0 0 0 -0.390925,-0.09486 z" /><path
     style="color:#000000;fill:#18a0ff;fill-opacity:1;stroke-width:0.425497;stroke-linecap:round;-inkscape-stroke:none"
     d="m 48.198762,26.880082 a 1.0637426,1.0637426 0 0 0 -0.781186,0.227708 1.0637426,1.0637426 0 0 0 -0.163717,1.495888 c 4.542902,5.654912 4.542902,13.691907 0,19.346819 a 1.0637426,1.0637426 0 0 0 0.163717,1.495057 1.0637426,1.0637426 0 0 0 1.495057,-0.162886 c 5.16053,-6.423722 5.16053,-15.58827 0,-22.011992 A 1.0637426,1.0637426 0 0 0 48.198762,26.880082 Z M 45.477076,29.6508 a 1.0637426,1.0637426 0 0 0 -0.790327,0.196127 1.0637426,1.0637426 0 0 0 -0.225214,1.486747 c 3.045604,4.131877 3.045604,9.754119 0,13.885996 a 1.0637426,1.0637426 0 0 0 0.225214,1.487577 1.0637426,1.0637426 0 0 0 1.487577,-0.225214 c 3.593611,-4.875339 3.593611,-11.534552 0,-16.409892 A 1.0637426,1.0637426 0 0 0 45.477076,29.6508 Z m -3.76382,3.183748 a 1.0637426,1.0637426 0 0 0 -0.305826,1.47345 c 1.583204,2.412114 1.583204,5.526065 0,7.938179 a 1.0637426,1.0637426 0 0 0 0.305826,1.472619 1.0637426,1.0637426 0 0 0 1.472619,-0.305826 c 2.045264,-3.116094 2.045264,-7.156502 0,-10.272596 a 1.0637426,1.0637426 0 0 0 -1.472619,-0.305826 z"
     id="path2" /><style
     id="style1">#accent-lettering,#black-lettering{display:inline;fill:none;stroke:#18a0ff;stroke-width:8.16302;stroke-linecap:round;stroke-linejoin:round;stroke-dasharray:none;stroke-opacity:1}#black-lettering{stroke:#fff}</style></svg>
